<?xml version="1.0" encoding="UTF-8" standalone="no"?>
<!DOCTYPE svg PUBLIC "-//W3C//DTD SVG 1.1//EN" "http://www.w3.org/Graphics/SVG/1.1/DTD/svg11.dtd">
<svg width="100%" height="100%" viewBox="0 0 2048 2048" version="1.1" xmlns="http://www.w3.org/2000/svg" xmlns:xlink="http://www.w3.org/1999/xlink" xml:space="preserve" xmlns:serif="http://www.serif.com/" style="fill-rule:evenodd;clip-rule:evenodd;stroke-linejoin:round;stroke-miterlimit:2;">
    <g transform="matrix(1,0,0,1,-12690,-2097)">
        <g id="Artboard9" transform="matrix(1,0,0,1,-0.506896,-0.852063)">
            <rect x="12690.5" y="2097.85" width="2048" height="2048" style="fill:none;"/>
            <clipPath id="_clip1">
                <rect x="12690.5" y="2097.85" width="2048" height="2048"/>
            </clipPath>
            <g clip-path="url(#_clip1)">
                <g transform="matrix(33.0389,0,0,33.0389,22078.4,2831.81)">
                    <path d="M-223.057,18.666C-218.128,16.857 -218.538,15.646 -223.481,17.535C-228.404,19.409 -233.24,21.561 -237.821,24.217C-239.048,24.789 -240.093,25.195 -240.75,25.195C-241.77,25.195 -241.859,24.215 -240.26,21.365L-231.42,5.405C-228.5,0.115 -231.87,-1.715 -234.52,-1.715L-244.279,15.985C-248.56,23.645 -246.1,26.926 -243.359,26.926C-241.298,26.926 -239.182,26.086 -237.579,25.178C-237.513,25.171 -237.446,25.151 -237.384,25.117L-237.376,25.112C-232.821,22.545 -227.985,20.468 -223.057,18.666ZM-227.77,-6.545C-225.76,-6.545 -223.659,-8.005 -223.3,-9.915C-223.029,-11.745 -224.489,-13.295 -226.58,-13.295C-228.59,-13.295 -230.87,-11.745 -231.14,-9.915C-231.42,-8.005 -229.87,-6.545 -227.77,-6.545M-251.116,-8.276C-242.452,0.66 -245.006,12.336 -254.947,20.907C-261.149,26.288 -269.357,28.297 -272.73,26.106C-276.652,23.553 -273.733,18.081 -271.911,14.705L-264.705,1.734C-279.739,2.192 -293.646,5.527 -308.482,8.327L-298.407,3.399C-286.331,1.224 -275.109,-1.626 -262.791,-1.71C-260.146,-1.71 -256.771,0.021 -259.689,5.311L-268.628,21.456C-268.993,22.185 -270.999,25.832 -268.719,25.832C-264.159,25.832 -257.045,18.355 -253.306,10.603C-250.022,3.853 -249.384,-4.172 -251.937,-8.003C-252.484,-8.915 -251.572,-8.732 -251.116,-8.276" style="fill:rgb(153,204,213);fill-rule:nonzero;"/>
                </g>
            </g>
        </g>
    </g>
</svg>
