<?xml version="1.0" encoding="UTF-8" standalone="no"?>
<!DOCTYPE svg PUBLIC "-//W3C//DTD SVG 1.1//EN" "http://www.w3.org/Graphics/SVG/1.1/DTD/svg11.dtd">
<svg width="100%" height="100%" viewBox="0 0 2048 2048" version="1.1" xmlns="http://www.w3.org/2000/svg" xmlns:xlink="http://www.w3.org/1999/xlink" xml:space="preserve" xmlns:serif="http://www.serif.com/" style="fill-rule:evenodd;clip-rule:evenodd;stroke-linejoin:round;stroke-miterlimit:2;">
    <g transform="matrix(1,0,0,1,-11965.6,-2097)">
        <g id="Artboard9" transform="matrix(1,0,0,1,-724.866,-0.852063)">
            <rect x="12690.5" y="2097.85" width="2048" height="2048" style="fill:none;"/>
            <g transform="matrix(1.11081,1.02551e-31,-1.65659e-31,1.11081,7638,1742.65)">
                <g transform="matrix(0.682873,0,0,0.682873,-4657.82,479.006)">
                    <path d="M15314.3,337.173C15263.7,418.377 15267.4,588.35 15267.4,588.35L15267.4,1432.43C15267.4,1558.93 15216.1,1673.56 15133.3,1756.65C15050.1,1840.01 14935.1,1891.63 14808.2,1891.63C14554.8,1891.63 14349,1685.87 14349,1432.43C14349,1307.41 14399.1,1194 14480.2,1111.16C14480.7,1110.7 14481.1,1110.24 14481.6,1109.78C14503.1,1088.18 14531.7,1073.62 14563.6,1069.83C14569,1069.18 14574.5,1068.85 14580.2,1068.85C14657,1068.85 14719.4,1131.25 14719.4,1208.1C14719.4,1284.95 14657,1347.35 14580.2,1347.35C14503.3,1347.35 14440.9,1284.95 14440.9,1208.1C14440.9,1203.26 14441.2,1198.48 14441.6,1193.76C14396.8,1262.41 14370.8,1344.4 14370.8,1432.43C14370.8,1673.86 14566.8,1869.87 14808.2,1869.87C15145.1,1869.87 15133.3,1551.45 15133.3,1434.77L15133.3,539.267C14997.3,631.377 14852.9,653.864 14805.8,588.35C14780.9,553.72 14788,501.147 14819.5,444.581C14820.4,442.872 14821.4,441.16 14822.4,439.445C14830.9,426.108 14844.7,416.496 14860.9,413.616C14860.9,413.611 14861,413.606 14861,413.6L14861,413.616C14864.3,413.031 14867.6,412.724 14871.1,412.719C14871.1,412.719 14871.1,412.719 14871.2,412.719C14903,412.759 14928.8,438.605 14928.8,470.434C14928.8,502.263 14903,528.109 14871.2,528.149C14871.1,528.149 14871.1,528.149 14871.1,528.149C14846.8,528.118 14826,513.082 14817.5,491.83L14817.5,491.929C14805.4,526.764 14806,557.447 14821.8,579.408C14864.2,638.459 15001.6,613.025 15133.3,523.517C15138.2,520.173 15143.1,516.739 15148,513.216C15196.4,478.379 15237.1,439.564 15267.4,401.258C15278.6,387.038 15288.5,372.888 15296.7,359.037C15296.8,358.893 15296.9,358.749 15297,358.606C15302.3,349.748 15308.1,342.498 15314.3,337.173Z" style="fill:rgb(164,165,147);"/>
                </g>
                <g transform="matrix(0.675745,0,0,0.62244,-10080.8,-293.082)">
                    <path d="M23793,1897.68L23793,3034.54C23793,3501.67 23443.6,3887.03 23013.4,3887.03C22583.1,3887.03 22233.7,3501.67 22233.7,3034.54L22233.7,1897.68C22233.7,1430.55 22583.1,1044.2 23013.4,1044.2C23443.6,1044.2 23793,1430.55 23793,1897.68ZM23762.2,1897.68C23762.2,1449.02 23426.6,1077.67 23013.4,1077.67C22600.1,1077.67 22264.6,1449.02 22264.6,1897.68L22264.6,3034.54C22264.6,3483.2 22600.1,3853.56 23013.4,3853.56C23426.6,3853.56 23762.2,3483.2 23762.2,3034.54L23762.2,1897.68Z" style="fill:rgb(164,165,147);"/>
                </g>
            </g>
        </g>
    </g>
</svg>
