<svg width="416" height="181" viewBox="0 0 416 181" fill="none" xmlns="http://www.w3.org/2000/svg">
<g clip-path="url(#clip0_4_164)">
<path d="M269.516 101.703L272.709 101.383L269.761 100.113L269.516 101.703ZM270.84 102.366L267.722 102.667C267.427 102.694 267.239 102.497 267.277 102.252C267.339 101.856 267.7 101.88 268.163 101.836C268.395 101.822 268.576 101.796 268.702 101.785L269.01 99.7887C268.553 99.5818 267.721 99.3699 267.785 98.9528C267.817 98.7493 268.028 98.5314 268.361 98.6662C269.467 99.1189 270.385 99.5114 271.255 99.8853L274.497 101.263C274.586 101.298 274.771 101.453 274.734 101.696C274.693 101.95 274.474 102.021 274.381 102.028C273.313 102.134 272.075 102.255 270.84 102.366Z" fill="#818284" fill-opacity="0.4"/>
<path d="M269.202 109.793C271.451 110.391 272.124 109.749 272.317 109.02C272.393 108.733 272.444 108.542 272.5 108.323C272.481 108.318 271.546 108.068 270.392 107.761C269.279 107.462 267.963 107.113 267.088 106.878C267.088 106.878 266.905 107.566 266.89 107.626C266.669 108.455 267.351 109.298 269.202 109.793ZM268.996 110.571C267.711 110.228 265.652 109.197 266.086 107.563C266.197 107.142 266.313 106.704 266.423 106.296C266.475 106.096 266.628 105.924 266.886 105.994C267.055 106.038 271.186 107.139 273.097 107.649C273.626 107.79 273.254 108.578 273.114 109.106C272.551 111.229 270.498 110.97 268.996 110.571Z" fill="#818284" fill-opacity="0.4"/>
<path d="M266.456 116.104C266.456 116.104 266.451 116.089 266.444 116.076C266.577 116.537 267.281 116.83 267.72 117.002C268.268 117.213 268.712 117.407 269.275 117.316C269.728 117.115 269.929 116.421 270.114 115.916C269.038 115.5 267.944 115.076 266.869 114.66C266.821 114.786 266.322 115.797 266.456 116.104ZM263.641 116.339C263.608 116.338 263.567 116.333 263.537 116.321C263.336 116.243 263.233 115.993 263.308 115.803C263.371 115.638 263.537 115.547 263.724 115.553C264.371 115.56 265.029 115.572 265.682 115.592C265.788 115.203 265.944 114.833 266.13 114.374C265.583 114.163 265.046 113.954 264.499 113.742C264.258 113.649 264.205 113.419 264.279 113.227C264.349 113.045 264.545 112.908 264.784 113.003C266.781 113.775 268.777 114.548 270.765 115.317C271.109 115.451 271.021 115.826 270.861 116.238C270.732 116.575 270.594 116.933 270.446 117.259C269.835 118.583 268.51 118.159 267.6 117.804C266.907 117.536 265.961 117.159 265.711 116.377C265.021 116.366 264.33 116.351 263.641 116.339Z" fill="#818284" fill-opacity="0.4"/>
<path d="M268.004 122.863C267.914 123.049 267.716 123.168 267.486 123.054C265.585 122.115 263.611 121.139 261.711 120.199C261.48 120.086 261.447 119.85 261.537 119.666C261.624 119.49 261.83 119.373 262.062 119.488C263.962 120.426 265.936 121.402 267.836 122.344C268.067 122.458 268.091 122.687 268.004 122.863Z" fill="#818284" fill-opacity="0.4"/>
<path d="M260.275 126.367L263.352 127.287L261.104 124.989L260.275 126.367ZM258.248 126.575C257.965 126.488 257.866 126.235 257.993 126.023C258.2 125.678 258.526 125.839 258.971 125.975C259.192 126.048 259.368 126.095 259.49 126.133L260.532 124.403C260.187 124.037 259.498 123.523 259.715 123.163C259.822 122.985 260.1 122.864 260.358 123.116C262.284 125.005 263.443 126.295 265.052 127.858C265.121 127.923 265.232 128.136 265.105 128.347C264.971 128.568 264.742 128.55 264.652 128.52C262.734 127.951 260.28 127.176 258.248 126.575Z" fill="#818284" fill-opacity="0.4"/>
<path d="M259.647 136.083C259.521 136.247 259.298 136.336 259.094 136.179C257.4 134.886 255.698 133.585 254.003 132.29C253.798 132.135 253.815 131.873 253.934 131.718C254.04 131.58 254.23 131.516 254.394 131.59C256.067 131.961 257.729 132.361 259.409 132.737C258.189 131.806 256.988 130.887 255.775 129.961C255.571 129.806 255.583 129.567 255.709 129.403C255.826 129.248 256.051 129.174 256.256 129.331C257.951 130.625 259.654 131.925 261.348 133.219C261.537 133.364 261.56 133.603 261.429 133.776C261.324 133.913 261.135 133.991 260.97 133.917C259.302 133.526 257.629 133.156 255.947 132.764C257.165 133.695 258.369 134.615 259.582 135.54C259.785 135.696 259.765 135.927 259.647 136.083Z" fill="#818284" fill-opacity="0.4"/>
<path d="M251.306 137.917L254.114 139.47L252.406 136.748L251.306 137.917ZM249.283 137.689C249.025 137.544 248.979 137.275 249.149 137.095C249.424 136.804 249.707 137.029 250.114 137.258C250.314 137.375 250.477 137.459 250.587 137.521L251.973 136.054C251.713 135.623 251.149 134.976 251.439 134.668C251.581 134.517 251.877 134.458 252.075 134.76C253.557 137.015 254.415 138.522 255.654 140.389C255.708 140.467 255.773 140.7 255.603 140.878C255.425 141.066 255.205 141 255.125 140.951C253.372 139.987 251.138 138.709 249.283 137.689Z" fill="#818284" fill-opacity="0.4"/>
<path d="M242.255 145.793L244.747 147.814L243.543 144.835L242.255 145.793ZM242.731 147.196L240.303 145.214C240.075 145.025 240.079 144.753 240.277 144.606C240.599 144.367 240.837 144.639 241.199 144.934C241.373 145.087 241.521 145.196 241.618 145.279L243.238 144.076C243.057 143.608 242.615 142.871 242.954 142.619C243.119 142.495 243.421 142.49 243.564 142.82C244.033 143.922 244.411 144.847 244.764 145.725L246.104 148.988C246.143 149.075 246.166 149.313 245.968 149.462C245.762 149.615 245.556 149.511 245.484 149.449C244.65 148.773 243.686 147.988 242.731 147.196Z" fill="#818284" fill-opacity="0.4"/>
<path d="M236.94 147.749C236.358 148.098 235.766 148.453 235.183 148.802C234.962 148.934 234.756 148.829 234.651 148.653C234.55 148.484 234.555 148.253 234.775 148.12C235.474 147.702 236.171 147.285 236.87 146.866C237.064 146.752 237.293 146.794 237.416 146.996C238.509 148.829 239.611 150.677 240.704 152.509C240.83 152.721 240.746 152.942 240.559 153.053C240.375 153.163 240.157 153.138 240.019 152.908C238.62 150.564 237.949 149.44 236.94 147.749Z" fill="#818284" fill-opacity="0.4"/>
<path d="M230.079 153.289C229.892 153.377 229.664 153.349 229.554 153.115C229.118 152.192 228.942 151.045 230.29 150.408C231.854 149.667 232.795 151.182 233.555 152.794C234.44 154.668 234.952 156.238 233.343 157C232.431 157.433 231.495 157.157 231.037 156.187C230.923 155.946 231.056 155.745 231.232 155.662C231.419 155.573 231.658 155.597 231.771 155.84C232.004 156.333 232.372 156.558 233.005 156.259C234.047 155.766 233.493 154.592 232.811 153.147C232.399 152.271 231.648 150.654 230.642 151.129C229.955 151.455 229.885 151.933 230.274 152.763C230.384 152.994 230.267 153.2 230.079 153.289Z" fill="#818284" fill-opacity="0.4"/>
<path d="M224.352 155.117L226.146 157.781L225.865 154.58L224.352 155.117ZM222.657 153.99C222.492 153.744 222.574 153.484 222.807 153.402C223.185 153.266 223.334 153.596 223.593 153.987C223.717 154.182 223.824 154.33 223.894 154.438L225.794 153.762C225.759 153.262 225.552 152.427 225.948 152.287C226.144 152.218 226.433 152.3 226.472 152.659C226.768 155.343 226.845 157.075 227.098 159.303C227.11 159.397 227.061 159.632 226.829 159.714C226.586 159.801 226.42 159.642 226.371 159.56C225.25 157.903 223.842 155.745 222.657 153.99Z" fill="#818284" fill-opacity="0.4"/>
<path d="M217.684 162.229C217.484 162.277 217.254 162.204 217.197 161.953C216.709 159.878 216.219 157.792 215.73 155.715C215.673 155.465 215.849 155.276 216.041 155.229C216.21 155.189 216.395 155.263 216.476 155.424C217.532 156.773 218.562 158.139 219.62 159.498C219.269 158.004 218.923 156.529 218.574 155.045C218.515 154.793 218.676 154.619 218.875 154.572C219.064 154.527 219.286 154.613 219.345 154.864C219.832 156.941 220.322 159.026 220.809 161.102C220.864 161.332 220.731 161.532 220.522 161.582C220.351 161.621 220.158 161.562 220.077 161.401C219.039 160.038 217.982 158.688 216.931 157.315C217.282 158.811 217.629 160.285 217.978 161.77C218.035 162.02 217.874 162.186 217.684 162.229Z" fill="#818284" fill-opacity="0.4"/>
<path d="M208.797 163.265C208.778 163.102 208.868 162.915 209.093 162.888C209.624 162.824 210.154 162.757 210.685 162.695C210.44 160.66 210.194 158.635 209.95 156.61C209.919 156.356 210.096 156.198 210.301 156.174C210.495 156.151 210.705 156.258 210.736 156.515C210.98 158.541 211.228 160.574 211.471 162.598C212.003 162.535 212.532 162.471 213.064 162.406C213.287 162.379 213.41 162.541 213.43 162.704C213.451 162.878 213.37 163.065 213.146 163.091C211.82 163.251 210.492 163.413 209.175 163.572C208.951 163.601 208.818 163.441 208.797 163.265Z" fill="#818284" fill-opacity="0.4"/>
<path d="M203.308 158.78L204.189 161.871L204.913 158.74L203.308 158.78ZM202.044 157.183C201.966 156.896 202.125 156.676 202.371 156.669C202.772 156.659 202.812 157.02 202.937 157.47C202.993 157.695 203.049 157.869 203.083 157.993L205.099 157.943C205.22 157.454 205.282 156.597 205.704 156.587C205.91 156.581 206.16 156.75 206.087 157.103C205.534 159.746 205.072 161.417 204.622 163.614C204.604 163.708 204.486 163.916 204.238 163.921C203.981 163.928 203.873 163.725 203.85 163.634C203.298 161.708 202.629 159.22 202.044 157.183Z" fill="#818284" fill-opacity="0.4"/>
<path d="M196.166 159.446C196.166 159.446 196.177 159.437 196.188 159.427C195.787 159.687 195.709 160.445 195.671 160.919C195.627 161.505 195.57 161.987 195.819 162.502C196.141 162.879 196.865 162.871 197.398 162.903C197.487 161.75 197.577 160.579 197.665 159.427C197.531 159.416 196.419 159.228 196.166 159.446ZM195.128 156.812C195.12 156.78 195.113 156.737 195.115 156.708C195.132 156.491 195.34 156.32 195.546 156.336C195.721 156.351 195.855 156.485 195.904 156.665C196.083 157.287 196.261 157.922 196.43 158.557C196.834 158.546 197.234 158.586 197.725 158.634C197.771 158.05 197.814 157.473 197.858 156.886C197.878 156.629 198.083 156.51 198.289 156.526C198.484 156.541 198.669 156.689 198.649 156.948C198.486 159.086 198.323 161.226 198.16 163.353C198.132 163.725 197.747 163.746 197.306 163.713C196.947 163.686 196.567 163.656 196.21 163.607C194.769 163.403 194.794 162.009 194.868 161.032C194.925 160.293 195.013 159.275 195.688 158.809C195.501 158.143 195.315 157.478 195.128 156.812Z" fill="#818284" fill-opacity="0.4"/>
<path d="M185.217 157.945C185.301 157.595 185.599 157.319 186.031 157.422C186.472 157.53 186.605 157.91 186.52 158.261C186.44 158.593 186.146 158.89 185.703 158.783C185.272 158.679 185.137 158.276 185.217 157.945Z" fill="#818284" fill-opacity="0.4"/>
<path d="M173.827 154.218C172.917 156.363 173.459 157.122 174.149 157.415C174.425 157.532 174.605 157.609 174.814 157.698C174.823 157.68 175.458 156.178 175.925 155.076C176.375 154.013 176.649 153.366 177.003 152.53C177.003 152.53 176.349 152.253 176.293 152.228C175.506 151.894 174.576 152.452 173.827 154.218ZM173.087 153.904C173.607 152.679 174.915 150.78 176.469 151.441C176.867 151.611 177.285 151.786 177.673 151.952C177.863 152.034 178.012 152.207 177.907 152.457C177.839 152.617 176.169 156.558 175.397 158.382C175.184 158.885 174.457 158.409 173.954 158.195C171.935 157.337 172.481 155.337 173.087 153.904Z" fill="#818284" fill-opacity="0.4"/>
<path d="M168.836 152.189C168.396 151.944 167.946 151.694 167.505 151.451C167.28 151.323 167.268 151.094 167.367 150.914C167.461 150.743 167.664 150.631 167.889 150.756C168.329 151.001 168.779 151.25 169.219 151.495C169.609 150.794 169.992 150.1 170.382 149.396C169.788 149.067 169.185 148.733 168.592 148.403C168.367 148.278 168.354 148.047 168.453 147.866C168.549 147.697 168.752 147.584 168.976 147.709C169.685 148.104 170.396 148.499 171.107 148.892C171.304 149.003 171.383 149.223 171.268 149.429C170.235 151.295 169.193 153.178 168.161 155.04C168.042 155.257 167.81 155.294 167.621 155.188C166.911 154.793 166.201 154.398 165.491 154.005C165.266 153.879 165.254 153.649 165.352 153.468C165.447 153.297 165.651 153.187 165.874 153.311C166.469 153.641 167.071 153.976 167.664 154.306C168.054 153.602 168.447 152.891 168.836 152.189Z" fill="#818284" fill-opacity="0.4"/>
<path d="M161.663 146.937C161.587 146.393 161.735 145.819 162.052 145.361C162.651 144.495 163.701 144.21 164.606 144.839C165.623 145.544 165.574 146.465 165.315 146.838C165.186 147.024 164.968 147.086 164.798 146.968C164.231 146.576 165.193 146.164 164.17 145.453C163.51 144.993 163.063 145.386 162.647 145.913C162.096 146.799 162.99 147.732 163.283 148.651C163.461 149.227 163.328 149.889 162.982 150.389C162.388 151.244 161.325 151.497 160.436 150.88C159.76 150.408 159.385 149.558 159.813 148.94C159.924 148.779 160.14 148.665 160.351 148.811C160.809 149.13 159.975 149.593 160.931 150.256C161.438 150.609 161.987 150.414 162.311 149.947C162.997 148.954 161.816 148.073 161.663 146.937Z" fill="#818284" fill-opacity="0.4"/>
<path d="M155.765 142.472C154.249 144.236 154.533 145.121 155.102 145.613C155.328 145.808 155.476 145.935 155.647 146.083C155.659 146.065 156.291 145.333 157.071 144.428C157.822 143.553 158.708 142.522 159.299 141.835C159.299 141.835 158.761 141.371 158.713 141.33C158.068 140.773 157.014 141.019 155.765 142.472ZM155.157 141.948C156.024 140.94 157.844 139.533 159.122 140.635C159.449 140.918 159.791 141.214 160.111 141.49C160.267 141.624 160.356 141.837 160.182 142.04C160.067 142.172 157.281 145.412 155.993 146.91C155.636 147.325 155.091 146.65 154.678 146.293C153.019 144.861 154.145 143.125 155.157 141.948Z" fill="#818284" fill-opacity="0.4"/>
<path d="M151.579 138.97C151.233 138.603 150.881 138.227 150.535 137.86C150.359 137.671 150.417 137.446 150.567 137.305C150.71 137.171 150.937 137.128 151.113 137.316C151.458 137.682 151.811 138.06 152.157 138.427C152.741 137.877 153.318 137.332 153.903 136.782C153.438 136.286 152.966 135.782 152.501 135.288C152.325 135.099 152.383 134.875 152.532 134.735C152.675 134.6 152.901 134.556 153.078 134.745C153.634 135.337 154.191 135.932 154.749 136.524C154.903 136.69 154.91 136.923 154.738 137.085C153.185 138.546 151.618 140.022 150.066 141.484C149.887 141.653 149.654 141.616 149.506 141.459C148.951 140.866 148.394 140.272 147.837 139.679C147.661 139.49 147.718 139.266 147.869 139.125C148.012 138.991 148.238 138.946 148.415 139.135C148.879 139.631 149.352 140.132 149.816 140.629C150.401 140.079 150.994 139.522 151.579 138.97Z" fill="#818284" fill-opacity="0.4"/>
<path d="M146.859 128.067C146.347 127.282 145.834 126.497 145.327 125.721C145.185 125.505 145.291 125.288 145.455 125.181C145.626 125.067 145.858 125.064 146 125.28C146.585 126.178 147.177 127.084 147.768 127.99C147.886 128.172 147.901 128.383 147.591 128.586C147.032 128.953 146.407 129.091 145.732 128.942C144.391 128.637 143.11 127.505 142.049 128.2C141.232 128.736 141.022 129.378 141.49 130.094C142.098 131.026 142.749 130.685 142.93 130.566C143.145 130.426 143.331 130.503 143.449 130.684C143.556 130.847 143.523 131.08 143.359 131.186C142.541 131.722 141.482 131.552 140.864 130.603C139.962 129.222 140.577 128.203 141.593 127.538C142.343 127.046 143.142 127.102 143.904 127.403C144.861 127.775 145.761 128.516 146.859 128.067Z" fill="#818284" fill-opacity="0.4"/>
<path d="M139.539 120.392C138.527 120.904 136.857 121.868 137.55 123.24C138.037 124.206 139.428 124.01 140.668 123.379C141.384 123.017 143.249 122.048 142.514 120.594C141.95 119.48 140.475 119.917 139.539 120.392ZM138.945 119.791C140.278 119.116 142.364 118.472 143.271 120.267C144.174 122.053 142.423 123.379 141.025 124.088C139.611 124.806 137.642 125.297 136.778 123.585C135.908 121.864 137.494 120.527 138.945 119.791Z" fill="#818284" fill-opacity="0.4"/>
<path d="M136.487 112.864C135.425 113.253 133.655 114.012 134.18 115.455C134.553 116.47 135.953 116.437 137.258 115.96C138.01 115.684 139.974 114.943 139.414 113.414C138.988 112.244 137.473 112.503 136.487 112.864ZM135.97 112.198C137.371 111.685 139.515 111.293 140.205 113.179C140.89 115.056 138.997 116.167 137.529 116.705C136.042 117.251 134.031 117.505 133.376 115.706C132.715 113.897 134.444 112.757 135.97 112.198Z" fill="#818284" fill-opacity="0.4"/>
<path d="M135.416 106.459C134.487 106.692 133.557 106.924 132.628 107.157C133.706 107.524 134.788 107.903 135.87 108.28C135.716 107.67 135.565 107.06 135.416 106.459ZM131.192 106.674C133.25 106.161 135.219 105.669 137.277 105.154C137.536 105.09 137.781 105.135 137.85 105.415C137.938 105.765 137.748 105.898 137.479 105.965C137.199 106.035 136.559 106.195 136.199 106.284C136.411 107.135 136.621 107.977 136.836 108.837C136.927 109.207 136.699 109.265 136.508 109.313C136.398 109.339 132.816 108.077 131.13 107.488C131.04 107.468 130.875 107.359 130.84 107.22C130.761 106.901 130.922 106.743 131.192 106.674Z" fill="#818284" fill-opacity="0.4"/>
<path d="M129.251 69.2165C129.321 68.9418 129.611 68.6655 130.025 68.8749C132.784 70.3059 135.019 71.6132 137.999 73.263C138.309 73.4165 138.353 73.6471 138.293 73.8802C138.23 74.1278 138.081 74.3084 137.734 74.2914C134.708 74.3007 131.67 74.2914 128.63 74.2965C128.572 74.2956 128.527 74.299 128.473 74.2855C128.17 74.2075 128.053 73.8684 128.124 73.5945C128.176 73.3894 128.339 73.2113 128.616 73.2105C130.968 73.2164 133.308 73.2079 135.635 73.1935C133.588 72.0643 131.544 70.9214 129.496 69.793C129.254 69.6565 129.197 69.4225 129.251 69.2165Z" fill="#818284" fill-opacity="0.4"/>
<path d="M131.612 62.3266C131.718 62.0621 131.975 61.8756 132.303 62.007C135.012 63.0879 137.826 64.2121 140.535 65.2931C140.865 65.4245 140.936 65.7432 140.832 66.0069C140.731 66.257 140.461 66.4393 140.133 66.3087C137.424 65.2261 134.609 64.1028 131.9 63.021C131.571 62.8896 131.513 62.5767 131.612 62.3266Z" fill="#818284" fill-opacity="0.4"/>
<path d="M137.116 51.2315C137.256 50.9848 137.543 50.8229 137.85 50.9967C140.398 52.4464 142.958 53.9029 145.505 55.3509C145.812 55.5264 145.839 55.8834 145.706 56.1182C145.587 56.3267 145.34 56.4471 145.103 56.3785C142.755 56.1835 140.416 55.9461 138.056 55.7443C139.891 56.7888 141.699 57.8172 143.52 58.8532C143.83 59.0278 143.856 59.3534 143.716 59.6001C143.584 59.8332 143.29 59.9773 142.983 59.8027C140.436 58.353 137.876 56.8965 135.328 55.4484C135.045 55.2874 134.967 54.9644 135.114 54.7075C135.233 54.4972 135.475 54.3582 135.711 54.426C138.058 54.6532 140.405 54.8465 142.77 55.0661C140.937 54.0242 139.126 52.9949 137.305 51.9581C136.999 51.7843 136.984 51.4655 137.116 51.2315Z" fill="#818284" fill-opacity="0.4"/>
<path d="M145.324 40.6638C145.5 40.8053 145.59 41.0792 145.396 41.3208C144.936 41.8956 144.476 42.4704 144.015 43.0452C146.21 44.8094 148.394 46.5661 150.578 48.321C150.854 48.544 150.83 48.8687 150.652 49.0908C150.484 49.301 150.172 49.3951 149.897 49.173C147.713 47.4164 145.517 45.6521 143.333 43.8964C142.873 44.4703 142.413 45.0451 141.953 45.6199C141.758 45.8641 141.482 45.8226 141.305 45.6818C141.118 45.5301 141.019 45.2698 141.213 45.0265C142.364 43.5895 143.514 42.1525 144.657 40.7273C144.852 40.4832 145.136 40.5128 145.324 40.6638Z" fill="#818284" fill-opacity="0.4"/>
<path d="M155.724 39.409L151.997 37.042L154.114 40.9206L155.724 39.409ZM158.482 39.8897C158.826 40.111 158.863 40.4823 158.616 40.7154C158.213 41.0944 157.843 40.7604 157.304 40.4128C157.039 40.2339 156.823 40.1059 156.676 40.0109L154.653 41.9117C154.973 42.5238 155.693 43.4589 155.27 43.8573C155.064 44.0506 154.651 44.1074 154.406 43.6785C152.557 40.4594 151.505 38.3187 149.96 35.6507C149.893 35.5388 149.824 35.2158 150.071 34.9818C150.33 34.7402 150.627 34.8513 150.733 34.9242C153.059 36.3934 156.019 38.3357 158.482 39.8897Z" fill="#818284" fill-opacity="0.4"/>
<path d="M164.017 30.4877C165.232 32.2477 166.793 34.5113 164.744 35.9296C162.708 37.3404 161.381 35.6414 159.851 33.4244C158.701 31.7568 156.852 29.2804 159.135 27.7001C160.275 26.91 161.596 27.0804 162.474 28.3504C162.676 28.642 162.57 28.9388 162.338 29.1007C162.116 29.2524 161.779 29.2635 161.577 28.9718C161.248 28.4937 160.592 28.0172 159.778 28.581C158.334 29.5814 159.633 31.2142 160.736 32.8123C162.007 34.6537 162.79 35.939 164.094 35.0369C165.257 34.2298 164.34 32.9013 163.423 31.5711C163.259 31.6847 163.075 31.8136 162.9 31.9348C162.434 32.257 162.115 32.3926 161.832 31.984C161.552 31.5754 161.77 31.3202 162.247 30.9904C162.526 30.7954 162.981 30.4826 163.225 30.3122C163.493 30.1265 163.847 30.2427 164.017 30.4877Z" fill="#818284" fill-opacity="0.4"/>
<path d="M169.946 26.4573C170.569 26.1504 171.204 25.8384 171.826 25.5323C172.143 25.3763 172.414 25.5416 172.539 25.796C172.658 26.0385 172.624 26.3555 172.307 26.5107C171.684 26.8176 171.049 27.1296 170.427 27.4365C170.913 28.4292 171.393 29.4093 171.881 30.402C172.719 29.9883 173.57 29.5695 174.408 29.1575C174.726 29.0006 174.996 29.1676 175.121 29.4211C175.241 29.6636 175.206 29.9807 174.888 30.1367C173.886 30.6301 172.882 31.1243 171.878 31.6186C171.6 31.7559 171.29 31.6712 171.146 31.3787C169.855 28.7446 168.551 26.0859 167.258 23.4518C167.109 23.1475 167.25 22.8567 167.516 22.7253C168.519 22.2319 169.523 21.7368 170.527 21.2434C170.843 21.0874 171.114 21.2535 171.239 21.5087C171.357 21.7495 171.324 22.0666 171.006 22.2225C170.169 22.6363 169.317 23.0551 168.48 23.4671C168.966 24.4599 169.46 25.4653 169.946 26.4573Z" fill="#818284" fill-opacity="0.4"/>
<path d="M185.85 16.1203C186.127 16.0601 186.426 16.1678 186.502 16.5128C186.817 17.9532 187.149 19.4614 187.472 20.9298C187.789 22.3694 188.096 23.7674 188.407 25.1798C188.482 25.5248 188.259 25.7639 187.983 25.8241C187.72 25.8826 187.418 25.7597 187.342 25.4146C187.035 24.0158 186.723 22.5906 186.409 21.1647C186.083 19.6836 185.758 18.2016 185.439 16.7477C185.363 16.4026 185.588 16.178 185.85 16.1203Z" fill="#818284" fill-opacity="0.4"/>
<path d="M198.073 14.4518C198.356 14.4289 198.652 14.5755 198.68 14.9299C198.916 17.8565 199.152 20.7958 199.388 23.7224C199.416 24.0776 199.136 24.2988 198.868 24.3209C198.627 24.3404 198.389 24.2022 198.313 23.9665C197.155 21.9123 196.035 19.8386 194.875 17.77C195.045 19.8759 195.211 21.9547 195.379 24.0471C195.409 24.4006 195.154 24.6057 194.872 24.6286C194.605 24.6507 194.321 24.4879 194.294 24.1352C194.057 21.2087 193.821 18.2677 193.585 15.3411C193.559 15.0147 193.781 14.7697 194.078 14.7468C194.317 14.7265 194.568 14.8485 194.644 15.0842C195.777 17.1562 196.937 19.2113 198.085 21.296C197.915 19.1892 197.748 17.1104 197.58 15.0172C197.551 14.6646 197.805 14.4738 198.073 14.4518Z" fill="#818284" fill-opacity="0.4"/>
<path d="M210.074 14.7391C210.356 14.7595 210.681 14.996 210.55 15.4419C209.638 18.4168 208.753 20.8542 207.669 24.086C207.573 24.4209 207.355 24.5048 207.115 24.487C206.861 24.4692 206.656 24.3539 206.61 24.0106C206.06 21.028 205.524 18.0328 204.974 15.0367C204.964 14.9808 204.954 14.9367 204.958 14.8799C204.981 14.5687 205.29 14.3924 205.572 14.4136C205.785 14.4288 205.988 14.556 206.039 14.8307C206.453 17.1494 206.883 19.4537 207.314 21.7444C208.055 19.5241 208.811 17.3054 209.554 15.085C209.643 14.8222 209.862 14.7239 210.074 14.7391Z" fill="#818284" fill-opacity="0.4"/>
<path d="M217.301 15.8397C217.579 15.8948 217.811 16.1153 217.74 16.462C217.166 19.3267 216.57 22.3024 215.994 25.1654C215.927 25.513 215.625 25.6402 215.347 25.5851C215.084 25.5325 214.857 25.2985 214.926 24.9509C215.502 22.0871 216.096 19.1114 216.671 16.2484C216.741 15.8999 217.037 15.7855 217.301 15.8397Z" fill="#818284" fill-opacity="0.4"/>
<path d="M229.802 19.953C229.729 20.1684 229.505 20.3447 229.21 20.2438C228.513 20.0048 227.817 19.7648 227.121 19.5249C226.207 22.1954 225.298 24.8499 224.389 27.5043C224.274 27.8409 223.96 27.9274 223.692 27.8358C223.438 27.7485 223.242 27.4865 223.358 27.1499C224.267 24.4955 225.18 21.8267 226.09 19.1722L224.002 18.4542C223.708 18.3524 223.652 18.0777 223.724 17.8641C223.804 17.636 224.015 17.4538 224.31 17.5555C226.05 18.154 227.791 18.7517 229.517 19.3443C229.813 19.4461 229.883 19.725 229.802 19.953Z" fill="#818284" fill-opacity="0.4"/>
<path d="M234.527 29.367L235.496 25.0551L232.565 28.3581L234.527 29.367ZM235.004 32.1291C234.912 32.5276 234.575 32.6878 234.272 32.5318C233.782 32.28 233.969 31.8197 234.117 31.1931C234.195 30.8845 234.241 30.6378 234.281 30.4674L231.815 29.2C231.348 29.707 230.711 30.7023 230.196 30.4369C229.943 30.3063 229.751 29.9367 230.072 29.5603C232.474 26.7346 234.129 25.0221 236.116 22.6669C236.2 22.5669 236.48 22.3914 236.78 22.5474C237.096 22.7085 237.092 23.0264 237.059 23.1518C236.461 25.8385 235.634 29.2831 235.004 32.1291Z" fill="#818284" fill-opacity="0.4"/>
<path d="M244.413 35.0642C244.643 35.2287 244.762 35.5237 244.556 35.8128C243.74 36.9531 242.483 37.934 240.814 36.7352C238.882 35.3491 240.069 33.2016 241.496 31.2085C243.154 28.8915 244.693 27.2247 246.684 28.6541C247.812 29.4637 248.107 30.7753 247.251 31.9732C247.036 32.2733 246.706 32.2453 246.488 32.0902C246.26 31.9232 246.128 31.6205 246.341 31.3212C246.779 30.7108 246.802 30.1182 246.021 29.5561C244.732 28.6312 243.692 30.0835 242.416 31.8689C241.642 32.9515 240.204 34.9362 241.445 35.8298C242.296 36.4402 242.917 36.2062 243.651 35.1804C243.856 34.8913 244.183 34.8989 244.413 35.0642Z" fill="#818284" fill-opacity="0.4"/>
<path d="M253.924 34.6741C254.13 34.8674 254.212 35.1751 253.97 35.4346C251.985 37.5735 249.923 39.7956 247.938 41.9346C247.696 42.194 247.375 42.1457 247.168 41.9524C246.97 41.7684 246.898 41.4505 247.14 41.1911C249.126 39.0521 251.188 36.83 253.172 34.6919C253.414 34.4316 253.727 34.491 253.924 34.6741Z" fill="#818284" fill-opacity="0.4"/>
<path d="M257.992 46.3312C258.885 45.5902 261.14 43.9396 259.975 42.5314C258.82 41.1342 256.948 42.8917 255.716 43.9133C254.354 45.0434 252.892 46.3863 253.894 47.5978C255.032 48.9729 256.903 47.2358 257.992 46.3312ZM260.805 41.8235C262.485 43.8531 260.332 45.8056 258.687 47.1714C257.206 48.4023 254.807 50.4125 253.038 48.2735C251.359 46.243 253.564 44.2643 255.099 42.9901C256.504 41.8218 259.09 39.7498 260.805 41.8235Z" fill="#818284" fill-opacity="0.4"/>
<path d="M268.723 53.6077C268.866 53.8519 268.864 54.1825 268.559 54.3614C266.036 55.8527 263.501 57.349 260.979 58.8386C260.672 59.0192 260.351 58.8632 260.215 58.6309C260.094 58.424 260.113 58.1494 260.29 57.9781C261.628 56.0358 263 54.1249 264.35 52.1767C262.534 53.2483 260.742 54.3063 258.939 55.3711C258.632 55.5509 258.339 55.4118 258.194 55.1685C258.058 54.9362 258.08 54.6107 258.385 54.4318C260.908 52.9405 263.443 51.4442 265.966 49.9546C266.246 49.7884 266.564 49.8809 266.715 50.1377C266.837 50.3446 266.837 50.6244 266.659 50.7956C265.294 52.7201 263.957 54.6624 262.587 56.6055C264.404 55.5331 266.195 54.475 268 53.4094C268.305 53.2305 268.587 53.3763 268.723 53.6077Z" fill="#818284" fill-opacity="0.4"/>
<path d="M268.528 63.399C268.782 64.0458 269.039 64.7063 269.295 65.3531C269.423 65.6812 269.237 65.9389 268.972 66.0424C268.722 66.1416 268.41 66.0822 268.281 65.7524C268.026 65.1056 267.768 64.4451 267.514 63.8C266.487 64.2044 265.472 64.6037 264.445 65.0089C264.787 65.8796 265.133 66.7638 265.477 67.6354C265.607 67.9635 265.417 68.2212 265.154 68.3246C264.904 68.4238 264.59 68.3645 264.462 68.0347C264.053 66.9919 263.643 65.9491 263.235 64.9072C263.12 64.6172 263.229 64.3146 263.532 64.195C266.258 63.1209 269.011 62.0357 271.737 60.9607C272.053 60.8361 272.332 61.0006 272.439 61.2778C272.848 62.3206 273.259 63.3634 273.668 64.4053C273.798 64.7359 273.609 64.992 273.346 65.0962C273.095 65.1954 272.784 65.1352 272.654 64.8054C272.311 63.9348 271.965 63.0497 271.623 62.1798C270.594 62.5851 269.556 62.9946 268.528 63.399Z" fill="#818284" fill-opacity="0.4"/>
<path d="M271.484 76.1082C271.061 76.7288 270.379 77.1782 269.635 77.3494C268.23 77.6741 266.899 76.9933 266.559 75.5165C266.176 73.8607 267.074 72.9689 267.68 72.8298C267.983 72.7586 268.262 72.8977 268.326 73.1749C268.54 74.099 267.182 73.6276 267.567 75.2986C267.814 76.3744 268.63 76.3906 269.538 76.238C270.915 75.8463 270.867 74.0693 271.418 72.8654C271.769 72.1168 272.513 71.5666 273.326 71.3784C274.717 71.058 276.031 71.7854 276.366 73.2359C276.618 74.3389 276.218 75.5512 275.21 75.7844C274.949 75.8454 274.625 75.7598 274.545 75.4147C274.374 74.6704 275.647 74.9714 275.288 73.4106C275.098 72.5831 274.358 72.2745 273.601 72.45C271.989 72.8222 272.374 74.812 271.484 76.1082Z" fill="#818284" fill-opacity="0.4"/>
<path d="M113.21 92.7833C112.515 92.7833 111.948 92.2238 111.941 91.5261C111.937 91.1725 111.936 90.819 111.936 90.4655C111.936 40.5824 152.443 -0.000488281 202.234 -0.000488281C247.58 -0.000488281 286.087 33.9315 291.806 78.9271C291.894 79.6239 291.402 80.2606 290.707 80.3488C290.015 80.4412 289.376 79.9453 289.287 79.2484C283.73 35.5194 246.305 2.54288 202.234 2.54288C153.843 2.54288 114.474 41.9846 114.474 90.4655C114.474 90.8097 114.476 91.1547 114.479 91.4981C114.487 92.2009 113.925 92.7766 113.224 92.7833H113.21Z" fill="#818284" fill-opacity="0.4"/>
<path d="M202.234 180.931C180.388 180.931 159.305 173.012 142.869 158.634C126.59 144.393 115.934 124.811 112.865 103.494C112.764 102.799 113.246 102.154 113.939 102.054C114.635 101.956 115.277 102.436 115.377 103.131C118.36 123.846 128.716 142.878 144.538 156.718C160.512 170.693 181.002 178.387 202.234 178.387C225.537 178.387 247.483 169.335 264.029 152.898C280.564 136.469 289.784 114.579 289.991 91.2625C289.998 90.5648 290.565 90.0027 291.26 90.0027H291.272C291.973 90.0086 292.535 90.5834 292.53 91.2854C292.317 115.278 282.83 137.799 265.817 154.703C248.792 171.617 226.212 180.931 202.234 180.931Z" fill="#818284" fill-opacity="0.4"/>
<path d="M202.33 146.314C174.101 146.314 150.257 125.173 146.867 97.1392C146.782 96.4423 147.278 95.809 147.975 95.7242C148.671 95.6395 149.303 96.1363 149.388 96.834C152.623 123.592 175.384 143.77 202.33 143.77C229.882 143.77 252.698 123.086 255.402 95.6564C255.472 94.9562 256.108 94.4509 256.791 94.5153C257.488 94.5848 257.998 95.2079 257.93 95.9065C255.096 124.642 231.193 146.314 202.33 146.314Z" fill="#818284" fill-opacity="0.4"/>
<path d="M256.664 86.1681C256.019 86.1681 255.467 85.6781 255.402 85.021C252.698 57.5916 229.882 36.9081 202.329 36.9081C174.896 36.9081 152.089 57.495 149.28 84.7947C149.208 85.4941 148.577 86.0002 147.887 85.9299C147.19 85.8578 146.683 85.233 146.755 84.5344C149.698 55.9325 173.59 34.3647 202.329 34.3647C231.192 34.3647 255.095 56.0351 257.929 84.7718C257.998 85.4704 257.488 86.0926 256.79 86.1622C256.749 86.1664 256.706 86.1681 256.664 86.1681Z" fill="#818284" fill-opacity="0.4"/>
<path d="M414.244 98.3899C413.082 96.1466 411.416 94.2721 409.589 92.7182C407.763 91.1421 405.735 89.9196 403.668 88.8539C401.606 87.7628 399.456 86.9354 397.305 86.1435C388.634 83.1763 379.669 81.7978 370.732 80.905C361.783 80.0445 352.811 79.7724 343.856 79.8445C334.9 79.908 325.958 80.3396 317.04 81.017C299.207 82.4022 281.456 84.7718 263.919 88.2605C255.153 90.0061 246.441 92.0594 237.858 94.5833C233.568 95.8507 229.312 97.2437 225.128 98.8443C220.962 100.434 216.87 102.257 212.993 104.509C211.955 104.995 211.071 105.339 210.516 105.339C209.652 105.339 209.576 104.508 210.929 102.092L218.41 88.5614C220.882 84.0766 218.03 82.5252 215.787 82.5252L207.528 97.5311C203.906 104.024 205.987 106.806 208.307 106.806C210.052 106.806 211.842 106.095 213.198 105.324C213.254 105.319 213.311 105.302 213.363 105.272L213.37 105.268C217.225 103.093 221.317 101.332 225.487 99.8031C229.658 98.2695 233.907 96.941 238.189 95.7363C246.759 93.3396 255.46 91.41 264.213 89.7856C281.723 86.5412 299.439 84.414 317.197 83.2704C326.077 82.7134 334.973 82.4014 343.86 82.4565C352.744 82.5014 361.627 82.8897 370.429 83.8537C379.208 84.8422 387.99 86.3343 396.189 89.2668C398.211 90.0425 400.228 90.8479 402.097 91.8729C403.977 92.8733 405.784 94.0017 407.32 95.3709C408.868 96.7223 410.186 98.2754 411.059 100.017C411.938 101.754 412.346 103.669 412.298 105.628L412.297 105.638V105.654C412.283 106.668 413.09 107.501 414.101 107.517C415.112 107.532 415.945 106.724 415.96 105.711C415.998 103.199 415.417 100.622 414.244 98.3899ZM221.499 78.4303C223.2 78.4303 224.978 77.1926 225.281 75.5733C225.511 74.0218 224.275 72.7078 222.507 72.7078C220.805 72.7078 218.876 74.0218 218.647 75.5733C218.41 77.1926 219.723 78.4303 221.499 78.4303ZM201.742 76.962C209.075 84.5387 206.913 94.4366 198.501 101.704C193.253 106.266 186.307 107.968 183.452 106.111C180.134 103.946 182.603 99.308 184.146 96.4459L190.243 85.4492C177.521 85.8375 165.753 88.6649 153.198 91.0387C119.755 97.3632 86.04 106.454 51.9397 107.952C35.3384 108.682 0.414638 109.661 0.00168019 85.5102C-0.0262453 83.8299 3.74539 83.2704 3.7784 85.2279C3.98572 97.3132 15.1441 102.185 25.5213 104.024C39.308 106.468 53.7032 105.455 67.5483 104.085C84.18 102.439 100.34 98.8943 116.778 95.9092C132.099 93.1285 146.4 89.628 161.724 86.8608C171.943 85.0168 181.439 82.5998 191.863 82.5294C194.101 82.5294 196.957 83.9969 194.487 88.4817L186.924 102.169C186.615 102.787 184.917 105.879 186.847 105.879C190.705 105.879 196.726 99.5395 199.89 92.9674C202.669 87.2448 203.208 80.4413 201.048 77.1943C200.585 76.4202 201.356 76.5754 201.742 76.962Z" fill="#818284" fill-opacity="0.4"/>
</g>
<defs>
<clipPath id="clip0_4_164">
<rect width="416" height="181" fill="white"/>
</clipPath>
</defs>
</svg>
