<svg width="225" height="59" viewBox="0 0 225 59" fill="none" xmlns="http://www.w3.org/2000/svg">
<path d="M61.2047 50.0738C60.83 50.0738 60.5234 49.7718 60.5189 49.3957C60.5166 49.2049 60.5152 49.0137 60.5152 48.8224C60.5152 21.9014 82.4154 0 109.334 0C133.85 0 154.668 18.312 157.76 42.5953C157.808 42.9719 157.542 43.3155 157.166 43.3631C156.791 43.4102 156.446 43.1453 156.398 42.7687C153.394 19.169 133.161 1.37261 109.334 1.37261C83.1725 1.37261 61.8877 22.6586 61.8877 48.8224C61.8877 49.0082 61.8891 49.1939 61.8914 49.3792C61.8959 49.7585 61.5922 50.0692 61.2133 50.0738H61.2047Z" fill="#818284" fill-opacity="0.3"/>
<path d="M138.761 46.5027C138.412 46.5027 138.114 46.2382 138.079 45.8836C136.617 31.0805 124.281 19.9179 109.386 19.9179C94.5538 19.9179 82.2242 31.0283 80.7057 45.7615C80.6673 46.1389 80.326 46.4098 79.9527 46.3741C79.5757 46.3352 79.3016 45.9976 79.3405 45.621C80.9313 30.1851 93.8479 18.5453 109.386 18.5453C124.99 18.5453 137.913 30.2404 139.445 45.7491C139.482 46.1261 139.206 46.462 138.829 46.4995C138.807 46.5018 138.784 46.5027 138.761 46.5027Z" fill="#818284" fill-opacity="0.3"/>
<path d="M223.955 53.099C223.327 51.8884 222.426 50.8763 221.439 50.0381C220.452 49.1871 219.355 48.5277 218.238 47.9526C217.123 47.3633 215.96 46.9172 214.797 46.4899C210.11 44.8885 205.263 44.1441 200.431 43.6628C195.593 43.1979 190.742 43.0515 185.901 43.0904C181.059 43.1242 176.224 43.3576 171.403 43.7232C161.762 44.4708 152.165 45.7496 142.684 47.6323C137.945 48.5744 133.235 49.6821 128.594 51.0442C126.275 51.7282 123.974 52.48 121.712 53.3442C119.46 54.2017 117.247 55.1863 115.152 56.4015C114.59 56.6632 114.112 56.849 113.812 56.849C113.345 56.849 113.304 56.4006 114.036 55.0966L118.08 47.7943C119.416 45.3739 117.875 44.5367 116.662 44.5367L112.197 52.6351C110.238 56.1398 111.364 57.641 112.618 57.641C113.561 57.641 114.529 57.2566 115.262 56.8412C115.292 56.838 115.323 56.8288 115.351 56.8133L115.355 56.811C117.439 55.6365 119.651 54.6862 121.906 53.8617C124.162 53.034 126.458 52.3166 128.773 51.6669C133.406 50.3735 138.11 49.3316 142.843 48.4555C152.309 46.704 161.887 45.5565 171.488 44.9393C176.289 44.6387 181.098 44.4703 185.903 44.4996C190.706 44.5243 195.509 44.7339 200.267 45.2541C205.014 45.7871 209.762 46.5924 214.194 48.175C215.288 48.5936 216.377 49.0288 217.388 49.5819C218.405 50.1213 219.381 50.7308 220.212 51.4693C221.049 52.199 221.762 53.0368 222.233 53.9766C222.708 54.914 222.929 55.9481 222.903 57.005V57.0105L222.903 57.0192C222.895 57.5659 223.331 58.0161 223.878 58.0244C224.424 58.0326 224.875 57.5961 224.883 57.0494C224.904 55.6937 224.589 54.3037 223.955 53.099ZM119.75 42.3267C120.669 42.3267 121.631 41.6587 121.795 40.7848C121.919 39.9476 121.251 39.2384 120.295 39.2384C119.375 39.2384 118.332 39.9476 118.208 40.7848C118.08 41.6587 118.79 42.3267 119.75 42.3267ZM109.069 41.5348C113.033 45.6233 111.864 50.9655 107.316 54.8871C104.479 57.3491 100.724 58.2683 99.1806 57.2658C97.3862 56.0977 98.7217 53.5941 99.5553 52.0494L102.852 46.1147C95.9739 46.3242 89.6115 47.8501 82.824 49.1312C64.743 52.5449 46.5157 57.4511 28.0797 58.2596C19.1045 58.6535 0.223802 59.182 8.34247e-05 46.1481C-0.0150141 45.2408 2.02408 44.9388 2.04192 45.9957C2.15401 52.5175 8.18709 55.1469 13.797 56.1398C21.2511 57.4584 29.0332 56.9117 36.5183 56.1727C45.5101 55.2842 54.247 53.3712 63.1335 51.7602C71.4175 50.2595 79.1484 48.3699 87.4333 46.8765C92.9585 45.8814 98.0922 44.5774 103.728 44.5389C104.938 44.5389 106.482 45.3309 105.147 47.7513L101.057 55.1382C100.891 55.4718 99.9725 57.1404 101.016 57.1404C103.102 57.1404 106.356 53.7194 108.067 50.1726C109.57 47.0842 109.861 43.4125 108.693 41.6597C108.443 41.2424 108.86 41.3261 109.069 41.5348Z" fill="#818284" fill-opacity="0.3"/>
<path d="M224.071 52.8725C223.443 51.6619 222.542 50.6498 221.555 49.8116C220.568 48.9606 219.471 48.3013 218.354 47.7261C217.238 47.1368 216.076 46.6907 214.913 46.2634C210.226 44.662 205.379 43.9176 200.547 43.4363C195.709 42.9714 190.858 42.825 186.017 42.8639C181.175 42.8977 176.341 43.1311 171.519 43.4967C161.878 44.2443 152.281 45.5231 142.8 47.4059C138.061 48.3479 133.351 49.4556 128.71 50.8177C126.391 51.5017 124.09 52.2535 121.828 53.1178C119.576 53.9752 117.363 54.9598 115.268 56.175C114.706 56.4367 114.228 56.6225 113.928 56.6225C113.461 56.6225 113.42 56.1741 114.152 54.8701L118.196 47.5678C119.532 45.1475 117.99 44.3102 116.778 44.3102L112.313 52.4086C110.355 55.9133 111.48 57.4145 112.734 57.4145C113.677 57.4145 114.645 57.0302 115.378 56.6147C115.409 56.6115 115.439 56.6024 115.468 56.5868L115.471 56.5845C117.555 55.41 119.768 54.4597 122.022 53.6352C124.277 52.8075 126.574 52.0901 128.889 51.4404C133.522 50.147 138.226 49.1052 142.959 48.229C152.425 46.4775 162.003 45.33 171.604 44.7128C176.405 44.4122 181.214 44.2438 186.019 44.2731C190.822 44.2978 195.625 44.5074 200.383 45.0276C205.13 45.5606 209.877 46.3659 214.31 47.9485C215.403 48.3671 216.493 48.8023 217.504 49.3554C218.521 49.8949 219.498 50.5043 220.328 51.2428C221.164 51.9725 221.878 52.8103 222.349 53.7501C222.825 54.6876 223.045 55.7216 223.019 56.7785L223.019 56.784V56.7927C223.011 57.3394 223.447 57.7897 223.994 57.7979C224.541 57.8061 224.991 57.3696 224.999 56.8229C225.02 55.4672 224.705 54.0772 224.071 52.8725ZM119.866 42.1003C120.786 42.1003 121.747 41.4323 121.911 40.5584C122.035 39.7211 121.367 39.0119 120.41 39.0119C119.491 39.0119 118.448 39.7211 118.324 40.5584C118.196 41.4323 118.905 42.1003 119.866 42.1003ZM109.185 41.3083C113.149 45.3968 111.981 50.739 107.432 54.6606C104.595 57.1226 100.84 58.0418 99.2967 57.0393C97.5024 55.8712 98.8378 53.3676 99.6714 51.8229L102.968 45.8882C96.0901 46.0978 89.7276 47.6236 82.9401 48.9048C64.8592 52.3184 46.6318 57.2246 28.1959 58.0331C19.2206 58.427 0.339499 58.9555 0.116238 45.9212C0.100683 45.0143 2.13978 44.7123 2.15808 45.7693C2.26971 52.291 8.30278 54.9205 13.9131 55.9133C21.3668 57.2319 29.1493 56.6852 36.6345 55.9462C45.6262 55.0577 54.3632 53.1447 63.2497 51.5338C71.5332 50.033 79.2641 48.1434 87.5494 46.65C93.0742 45.6549 98.2083 44.3509 103.844 44.3125C105.054 44.3125 106.598 45.1044 105.263 47.5248L101.173 54.9118C101.006 55.2453 100.089 56.9139 101.132 56.9139C103.218 56.9139 106.473 53.4929 108.183 49.9461C109.686 46.8577 109.978 43.186 108.81 41.4332C108.559 41.0159 108.977 41.0996 109.185 41.3083Z" fill="#818284" fill-opacity="0.3"/>
</svg>
